<svg xmlns="http://www.w3.org/2000/svg" xmlns:xlink="http://www.w3.org/1999/xlink" width="1080" zoomAndPan="magnify" viewBox="0 0 810 809.999993" height="1080" preserveAspectRatio="xMidYMid meet" version="1.0"><defs><g/><clipPath id="4275f77f45"><path d="M 121 0.0390625 L 287 0.0390625 L 287 274 L 121 274 Z M 121 0.0390625 " clip-rule="nonzero"/></clipPath><clipPath id="b9dc5a7c8d"><path d="M 0.921875 442 L 567.320312 442 L 567.320312 562.601562 L 0.921875 562.601562 Z M 0.921875 442 " clip-rule="nonzero"/></clipPath><clipPath id="fd4173b00d"><rect x="0" width="568" y="0" height="121"/></clipPath><clipPath id="6543c0f6db"><rect x="0" width="568" y="0" height="563"/></clipPath></defs><g transform="matrix(1, 0, 0, 1, 121, 143)"><g clip-path="url(#6543c0f6db)"><path fill="#ddba52" d="M 207.570312 246.480469 L 207.570312 276.769531 C 204.375 277.535156 204.375 280.730469 207.570312 286.226562 L 200.925781 316.007812 C 200.414062 318.433594 202.203125 320.609375 204.632812 320.609375 L 212.300781 320.609375 C 214.730469 320.609375 216.519531 318.433594 216.132812 316.007812 L 210.382812 286.101562 C 213.195312 280.730469 213.832031 277.664062 210.382812 276.769531 L 210.382812 245.714844 L 207.570312 245.714844 " fill-opacity="1" fill-rule="nonzero"/><path fill="#ddba52" d="M 266.105469 404.960938 C 261.632812 404.960938 256.519531 403.808594 250.769531 400.871094 L 252.429688 397.417969 C 265.851562 404.066406 275.179688 400.742188 278.121094 394.863281 C 280.804688 389.625 278.632812 381.570312 267.640625 375.949219 C 254.476562 368.152344 252.429688 359.714844 254.859375 354.476562 C 257.800781 348.085938 268.152344 344.125 282.339844 348.980469 L 281.058594 352.558594 C 269.175781 348.597656 260.484375 351.410156 258.3125 356.136719 C 256.519531 359.972656 258.566406 366.234375 269.558594 372.753906 C 282.851562 379.527344 285.148438 390.007812 281.699219 396.78125 C 279.269531 401.507812 273.902344 405.089844 266.105469 404.960938 Z M 266.105469 404.960938 " fill-opacity="1" fill-rule="nonzero"/><path fill="#ddba52" d="M 360.683594 403.808594 C 356.210938 403.808594 351.097656 402.660156 345.347656 399.71875 L 347.007812 396.269531 C 360.429688 402.914062 369.757812 399.59375 372.699219 393.714844 C 375.382812 388.472656 373.210938 380.421875 362.21875 374.796875 C 349.054688 367 347.007812 358.566406 349.4375 353.328125 C 352.375 346.9375 362.730469 342.972656 376.914062 347.832031 L 375.636719 351.410156 C 363.75 347.445312 355.0625 350.257812 352.886719 354.988281 C 351.097656 358.820312 353.144531 365.085938 364.136719 371.601562 C 377.425781 378.375 379.726562 388.855469 376.277344 395.628906 C 373.847656 400.359375 368.480469 403.9375 360.683594 403.808594 Z M 360.683594 403.808594 " fill-opacity="1" fill-rule="nonzero"/><path fill="#ddba52" d="M 242.589844 403.683594 L 220.734375 354.222656 C 211.023438 377.226562 200.542969 403.171875 200.542969 402.914062 L 196.707031 402.914062 C 196.707031 402.402344 196.707031 401.253906 218.820312 348.851562 C 219.074219 348.085938 219.839844 347.574219 220.609375 347.574219 C 221.375 347.574219 222.140625 348.085938 222.523438 348.726562 L 246.296875 403.425781 L 242.589844 403.425781 Z M 242.589844 403.683594 " fill-opacity="1" fill-rule="nonzero"/><path fill="#ddba52" d="M 206.675781 380.039062 L 235.433594 380.039062 L 235.433594 383.871094 L 206.675781 383.871094 Z M 206.675781 380.039062 " fill-opacity="1" fill-rule="nonzero"/><path fill="#ddba52" d="M 336.527344 403.683594 L 314.671875 354.222656 C 304.960938 377.226562 294.480469 403.171875 294.480469 402.914062 L 290.644531 402.914062 C 290.644531 402.402344 290.644531 401.253906 312.757812 348.851562 C 313.011719 348.085938 313.777344 347.574219 314.546875 347.574219 C 315.3125 347.574219 316.078125 348.085938 316.464844 348.726562 L 340.234375 403.425781 L 336.527344 403.425781 Z M 336.527344 403.683594 " fill-opacity="1" fill-rule="nonzero"/><path fill="#ddba52" d="M 300.742188 380.039062 L 329.5 380.039062 L 329.5 383.871094 L 300.742188 383.871094 Z M 300.742188 380.039062 " fill-opacity="1" fill-rule="nonzero"/><path fill="#ddba52" d="M 184.054688 403.171875 L 67.878906 402.277344 L 77.335938 387.066406 L 184.054688 387.324219 Z M 184.054688 403.171875 " fill-opacity="1" fill-rule="nonzero"/><path fill="#ddba52" d="M 361.324219 129.535156 L 375.125 121.613281 L 495.777344 330.578125 L 481.972656 338.5 Z M 361.324219 129.535156 " fill-opacity="1" fill-rule="nonzero"/><g clip-path="url(#4275f77f45)"><path fill="#ddba52" d="M 135.234375 273.832031 L 121.558594 265.777344 L 277.480469 0.707031 L 286.429688 16.554688 L 135.359375 273.832031 Z M 135.234375 273.832031 " fill-opacity="1" fill-rule="nonzero"/></g><path fill="#ddba52" d="M 500.121094 381.058594 L 390.71875 381.058594 L 390.71875 362.015625 L 466.765625 362.015625 L 289.238281 61.160156 L 112.867188 362.015625 L 185.207031 362.015625 L 185.207031 381.058594 L 79.636719 381.058594 L 289.113281 23.585938 Z M 500.121094 381.058594 " fill-opacity="1" fill-rule="nonzero"/><path fill="#ddba52" d="M 189.167969 242.007812 L 292.050781 216.699219 L 392.253906 242.007812 L 290.773438 266.671875 L 189.296875 242.007812 Z M 189.167969 242.007812 " fill-opacity="1" fill-rule="nonzero"/><path fill="#ddba52" d="M 231.085938 257.214844 L 290.773438 272.808594 L 349.820312 257.214844 L 349.820312 288.402344 C 325.410156 291.851562 306.109375 301.308594 290.773438 314.984375 C 273.519531 299.390625 253.964844 289.679688 231.085938 287.890625 Z M 231.085938 257.214844 " fill-opacity="1" fill-rule="nonzero"/><g clip-path="url(#b9dc5a7c8d)"><g transform="matrix(1, 0, 0, 1, 0.000000000000014211, 442)"><g clip-path="url(#fd4173b00d)"><g fill="#000000" fill-opacity="1"><g transform="translate(4.528026, 54.592005)"><g><path d="M 25.34375 -6.296875 L 12.03125 -6.296875 L 9.90625 0 L 0.8125 0 L 13.71875 -35.65625 L 23.765625 -35.65625 L 36.671875 0 L 27.46875 0 Z M 23.109375 -13 L 18.6875 -26.046875 L 14.328125 -13 Z M 23.109375 -13 "/></g></g></g><g fill="#000000" fill-opacity="1"><g transform="translate(41.944722, 54.592005)"><g><path d="M 16.046875 0.359375 C 13.441406 0.359375 11.101562 -0.0625 9.03125 -0.90625 C 6.96875 -1.757812 5.316406 -3.015625 4.078125 -4.671875 C 2.847656 -6.328125 2.203125 -8.328125 2.140625 -10.671875 L 11.375 -10.671875 C 11.507812 -9.347656 11.96875 -8.335938 12.75 -7.640625 C 13.53125 -6.953125 14.546875 -6.609375 15.796875 -6.609375 C 17.078125 -6.609375 18.085938 -6.898438 18.828125 -7.484375 C 19.578125 -8.078125 19.953125 -8.898438 19.953125 -9.953125 C 19.953125 -10.835938 19.65625 -11.566406 19.0625 -12.140625 C 18.476562 -12.710938 17.753906 -13.1875 16.890625 -13.5625 C 16.023438 -13.9375 14.796875 -14.359375 13.203125 -14.828125 C 10.898438 -15.535156 9.019531 -16.242188 7.5625 -16.953125 C 6.113281 -17.671875 4.863281 -18.722656 3.8125 -20.109375 C 2.757812 -21.492188 2.234375 -23.304688 2.234375 -25.546875 C 2.234375 -28.859375 3.4375 -31.453125 5.84375 -33.328125 C 8.25 -35.210938 11.378906 -36.15625 15.234375 -36.15625 C 19.160156 -36.15625 22.328125 -35.210938 24.734375 -33.328125 C 27.140625 -31.453125 28.425781 -28.84375 28.59375 -25.5 L 19.203125 -25.5 C 19.128906 -26.644531 18.703125 -27.546875 17.921875 -28.203125 C 17.148438 -28.867188 16.15625 -29.203125 14.9375 -29.203125 C 13.882812 -29.203125 13.035156 -28.921875 12.390625 -28.359375 C 11.742188 -27.804688 11.421875 -27.003906 11.421875 -25.953125 C 11.421875 -24.796875 11.960938 -23.894531 13.046875 -23.25 C 14.128906 -22.613281 15.820312 -21.921875 18.125 -21.171875 C 20.425781 -20.398438 22.296875 -19.65625 23.734375 -18.9375 C 25.179688 -18.226562 26.425781 -17.195312 27.46875 -15.84375 C 28.519531 -14.488281 29.046875 -12.742188 29.046875 -10.609375 C 29.046875 -8.578125 28.53125 -6.734375 27.5 -5.078125 C 26.46875 -3.421875 24.96875 -2.097656 23 -1.109375 C 21.039062 -0.128906 18.722656 0.359375 16.046875 0.359375 Z M 16.046875 0.359375 "/></g></g></g><g fill="#000000" fill-opacity="1"><g transform="translate(73.167609, 54.592005)"><g><path d="M 25.34375 -6.296875 L 12.03125 -6.296875 L 9.90625 0 L 0.8125 0 L 13.71875 -35.65625 L 23.765625 -35.65625 L 36.671875 0 L 27.46875 0 Z M 23.109375 -13 L 18.6875 -26.046875 L 14.328125 -13 Z M 23.109375 -13 "/></g></g></g><g fill="#000000" fill-opacity="1"><g transform="translate(110.584305, 54.592005)"><g><path d="M 16.046875 0.359375 C 13.441406 0.359375 11.101562 -0.0625 9.03125 -0.90625 C 6.96875 -1.757812 5.316406 -3.015625 4.078125 -4.671875 C 2.847656 -6.328125 2.203125 -8.328125 2.140625 -10.671875 L 11.375 -10.671875 C 11.507812 -9.347656 11.96875 -8.335938 12.75 -7.640625 C 13.53125 -6.953125 14.546875 -6.609375 15.796875 -6.609375 C 17.078125 -6.609375 18.085938 -6.898438 18.828125 -7.484375 C 19.578125 -8.078125 19.953125 -8.898438 19.953125 -9.953125 C 19.953125 -10.835938 19.65625 -11.566406 19.0625 -12.140625 C 18.476562 -12.710938 17.753906 -13.1875 16.890625 -13.5625 C 16.023438 -13.9375 14.796875 -14.359375 13.203125 -14.828125 C 10.898438 -15.535156 9.019531 -16.242188 7.5625 -16.953125 C 6.113281 -17.671875 4.863281 -18.722656 3.8125 -20.109375 C 2.757812 -21.492188 2.234375 -23.304688 2.234375 -25.546875 C 2.234375 -28.859375 3.4375 -31.453125 5.84375 -33.328125 C 8.25 -35.210938 11.378906 -36.15625 15.234375 -36.15625 C 19.160156 -36.15625 22.328125 -35.210938 24.734375 -33.328125 C 27.140625 -31.453125 28.425781 -28.84375 28.59375 -25.5 L 19.203125 -25.5 C 19.128906 -26.644531 18.703125 -27.546875 17.921875 -28.203125 C 17.148438 -28.867188 16.15625 -29.203125 14.9375 -29.203125 C 13.882812 -29.203125 13.035156 -28.921875 12.390625 -28.359375 C 11.742188 -27.804688 11.421875 -27.003906 11.421875 -25.953125 C 11.421875 -24.796875 11.960938 -23.894531 13.046875 -23.25 C 14.128906 -22.613281 15.820312 -21.921875 18.125 -21.171875 C 20.425781 -20.398438 22.296875 -19.65625 23.734375 -18.9375 C 25.179688 -18.226562 26.425781 -17.195312 27.46875 -15.84375 C 28.519531 -14.488281 29.046875 -12.742188 29.046875 -10.609375 C 29.046875 -8.578125 28.53125 -6.734375 27.5 -5.078125 C 26.46875 -3.421875 24.96875 -2.097656 23 -1.109375 C 21.039062 -0.128906 18.722656 0.359375 16.046875 0.359375 Z M 16.046875 0.359375 "/></g></g></g><g fill="#000000" fill-opacity="1"><g transform="translate(141.807192, 54.592005)"><g/></g></g><g fill="#000000" fill-opacity="1"><g transform="translate(152.57021, 54.592005)"><g><path d="M 26.359375 -35.65625 L 26.359375 -28.6875 L 11.828125 -28.6875 L 11.828125 -21.171875 L 22.703125 -21.171875 L 22.703125 -14.421875 L 11.828125 -14.421875 L 11.828125 0 L 3.15625 0 L 3.15625 -35.65625 Z M 26.359375 -35.65625 "/></g></g></g><g fill="#000000" fill-opacity="1"><g transform="translate(180.340809, 54.592005)"><g><path d="M 20.015625 0.359375 C 16.660156 0.359375 13.585938 -0.414062 10.796875 -1.96875 C 8.003906 -3.53125 5.785156 -5.707031 4.140625 -8.5 C 2.492188 -11.300781 1.671875 -14.441406 1.671875 -17.921875 C 1.671875 -21.410156 2.492188 -24.539062 4.140625 -27.3125 C 5.785156 -30.09375 8.003906 -32.257812 10.796875 -33.8125 C 13.585938 -35.375 16.660156 -36.15625 20.015625 -36.15625 C 23.359375 -36.15625 26.425781 -35.375 29.21875 -33.8125 C 32.019531 -32.257812 34.222656 -30.09375 35.828125 -27.3125 C 37.429688 -24.539062 38.234375 -21.410156 38.234375 -17.921875 C 38.234375 -14.441406 37.421875 -11.300781 35.796875 -8.5 C 34.171875 -5.707031 31.96875 -3.53125 29.1875 -1.96875 C 26.414062 -0.414062 23.359375 0.359375 20.015625 0.359375 Z M 20.015625 -7.5625 C 22.859375 -7.5625 25.132812 -8.507812 26.84375 -10.40625 C 28.550781 -12.300781 29.40625 -14.804688 29.40625 -17.921875 C 29.40625 -21.078125 28.550781 -23.59375 26.84375 -25.46875 C 25.132812 -27.34375 22.859375 -28.28125 20.015625 -28.28125 C 17.128906 -28.28125 14.832031 -27.347656 13.125 -25.484375 C 11.414062 -23.628906 10.5625 -21.109375 10.5625 -17.921875 C 10.5625 -14.773438 11.414062 -12.257812 13.125 -10.375 C 14.832031 -8.5 17.128906 -7.5625 20.015625 -7.5625 Z M 20.015625 -7.5625 "/></g></g></g><g fill="#000000" fill-opacity="1"><g transform="translate(220.245194, 54.592005)"><g><path d="M 21.328125 0 L 13.921875 -13.453125 L 11.828125 -13.453125 L 11.828125 0 L 3.15625 0 L 3.15625 -35.65625 L 17.71875 -35.65625 C 20.53125 -35.65625 22.925781 -35.160156 24.90625 -34.171875 C 26.882812 -33.191406 28.363281 -31.847656 29.34375 -30.140625 C 30.332031 -28.429688 30.828125 -26.523438 30.828125 -24.421875 C 30.828125 -22.054688 30.15625 -19.941406 28.8125 -18.078125 C 27.476562 -16.210938 25.507812 -14.894531 22.90625 -14.125 L 31.125 0 Z M 11.828125 -19.609375 L 17.21875 -19.609375 C 18.8125 -19.609375 20.003906 -19.992188 20.796875 -20.765625 C 21.585938 -21.546875 21.984375 -22.648438 21.984375 -24.078125 C 21.984375 -25.429688 21.585938 -26.492188 20.796875 -27.265625 C 20.003906 -28.046875 18.8125 -28.4375 17.21875 -28.4375 L 11.828125 -28.4375 Z M 11.828125 -19.609375 "/></g></g></g><g fill="#000000" fill-opacity="1"><g transform="translate(253.346541, 54.592005)"><g/></g></g><g fill="#000000" fill-opacity="1"><g transform="translate(264.10956, 54.592005)"><g><path d="M 11.828125 -28.6875 L 11.828125 -21.484375 L 23.46875 -21.484375 L 23.46875 -14.78125 L 11.828125 -14.78125 L 11.828125 -6.953125 L 24.984375 -6.953125 L 24.984375 0 L 3.15625 0 L 3.15625 -35.65625 L 24.984375 -35.65625 L 24.984375 -28.6875 Z M 11.828125 -28.6875 "/></g></g></g><g fill="#000000" fill-opacity="1"><g transform="translate(291.575544, 54.592005)"><g><path d="M 16.5 -35.65625 C 20.257812 -35.65625 23.546875 -34.910156 26.359375 -33.421875 C 29.171875 -31.929688 31.34375 -29.835938 32.875 -27.140625 C 34.414062 -24.453125 35.1875 -21.347656 35.1875 -17.828125 C 35.1875 -14.335938 34.414062 -11.238281 32.875 -8.53125 C 31.34375 -5.820312 29.160156 -3.722656 26.328125 -2.234375 C 23.503906 -0.742188 20.226562 0 16.5 0 L 3.15625 0 L 3.15625 -35.65625 Z M 15.953125 -7.515625 C 19.234375 -7.515625 21.785156 -8.410156 23.609375 -10.203125 C 25.441406 -12.003906 26.359375 -14.546875 26.359375 -17.828125 C 26.359375 -21.109375 25.441406 -23.660156 23.609375 -25.484375 C 21.785156 -27.316406 19.234375 -28.234375 15.953125 -28.234375 L 11.828125 -28.234375 L 11.828125 -7.515625 Z M 15.953125 -7.515625 "/></g></g></g><g fill="#000000" fill-opacity="1"><g transform="translate(328.484564, 54.592005)"><g><path d="M 11.6875 -35.65625 L 11.6875 -14.328125 C 11.6875 -12.191406 12.207031 -10.546875 13.25 -9.390625 C 14.300781 -8.242188 15.84375 -7.671875 17.875 -7.671875 C 19.90625 -7.671875 21.460938 -8.242188 22.546875 -9.390625 C 23.628906 -10.546875 24.171875 -12.191406 24.171875 -14.328125 L 24.171875 -35.65625 L 32.859375 -35.65625 L 32.859375 -14.375 C 32.859375 -11.1875 32.179688 -8.492188 30.828125 -6.296875 C 29.472656 -4.097656 27.648438 -2.4375 25.359375 -1.3125 C 23.078125 -0.195312 20.53125 0.359375 17.71875 0.359375 C 14.914062 0.359375 12.40625 -0.191406 10.1875 -1.296875 C 7.96875 -2.398438 6.210938 -4.054688 4.921875 -6.265625 C 3.640625 -8.484375 3 -11.1875 3 -14.375 L 3 -35.65625 Z M 11.6875 -35.65625 "/></g></g></g><g fill="#000000" fill-opacity="1"><g transform="translate(364.276693, 54.592005)"><g><path d="M 1.671875 -17.875 C 1.671875 -21.394531 2.429688 -24.535156 3.953125 -27.296875 C 5.484375 -30.054688 7.609375 -32.207031 10.328125 -33.75 C 13.054688 -35.289062 16.148438 -36.0625 19.609375 -36.0625 C 23.835938 -36.0625 27.457031 -34.941406 30.46875 -32.703125 C 33.476562 -30.472656 35.492188 -27.425781 36.515625 -23.5625 L 26.96875 -23.5625 C 26.257812 -25.050781 25.25 -26.1875 23.9375 -26.96875 C 22.632812 -27.75 21.15625 -28.140625 19.5 -28.140625 C 16.820312 -28.140625 14.65625 -27.207031 13 -25.34375 C 11.34375 -23.476562 10.515625 -20.988281 10.515625 -17.875 C 10.515625 -14.757812 11.34375 -12.269531 13 -10.40625 C 14.65625 -8.550781 16.820312 -7.625 19.5 -7.625 C 21.15625 -7.625 22.632812 -8.007812 23.9375 -8.78125 C 25.25 -9.5625 26.257812 -10.695312 26.96875 -12.1875 L 36.515625 -12.1875 C 35.492188 -8.332031 33.476562 -5.296875 30.46875 -3.078125 C 27.457031 -0.859375 23.835938 0.25 19.609375 0.25 C 16.148438 0.25 13.054688 -0.519531 10.328125 -2.0625 C 7.609375 -3.601562 5.484375 -5.742188 3.953125 -8.484375 C 2.429688 -11.222656 1.671875 -14.351562 1.671875 -17.875 Z M 1.671875 -17.875 "/></g></g></g><g fill="#000000" fill-opacity="1"><g transform="translate(402.962586, 54.592005)"><g><path d="M 25.34375 -6.296875 L 12.03125 -6.296875 L 9.90625 0 L 0.8125 0 L 13.71875 -35.65625 L 23.765625 -35.65625 L 36.671875 0 L 27.46875 0 Z M 23.109375 -13 L 18.6875 -26.046875 L 14.328125 -13 Z M 23.109375 -13 "/></g></g></g><g fill="#000000" fill-opacity="1"><g transform="translate(440.379298, 54.592005)"><g><path d="M 28.796875 -35.65625 L 28.796875 -28.6875 L 19.34375 -28.6875 L 19.34375 0 L 10.671875 0 L 10.671875 -28.6875 L 1.21875 -28.6875 L 1.21875 -35.65625 Z M 28.796875 -35.65625 "/></g></g></g><g fill="#000000" fill-opacity="1"><g transform="translate(470.38374, 54.592005)"><g><path d="M 11.828125 -35.65625 L 11.828125 0 L 3.15625 0 L 3.15625 -35.65625 Z M 11.828125 -35.65625 "/></g></g></g><g fill="#000000" fill-opacity="1"><g transform="translate(485.36057, 54.592005)"><g><path d="M 20.015625 0.359375 C 16.660156 0.359375 13.585938 -0.414062 10.796875 -1.96875 C 8.003906 -3.53125 5.785156 -5.707031 4.140625 -8.5 C 2.492188 -11.300781 1.671875 -14.441406 1.671875 -17.921875 C 1.671875 -21.410156 2.492188 -24.539062 4.140625 -27.3125 C 5.785156 -30.09375 8.003906 -32.257812 10.796875 -33.8125 C 13.585938 -35.375 16.660156 -36.15625 20.015625 -36.15625 C 23.359375 -36.15625 26.425781 -35.375 29.21875 -33.8125 C 32.019531 -32.257812 34.222656 -30.09375 35.828125 -27.3125 C 37.429688 -24.539062 38.234375 -21.410156 38.234375 -17.921875 C 38.234375 -14.441406 37.421875 -11.300781 35.796875 -8.5 C 34.171875 -5.707031 31.96875 -3.53125 29.1875 -1.96875 C 26.414062 -0.414062 23.359375 0.359375 20.015625 0.359375 Z M 20.015625 -7.5625 C 22.859375 -7.5625 25.132812 -8.507812 26.84375 -10.40625 C 28.550781 -12.300781 29.40625 -14.804688 29.40625 -17.921875 C 29.40625 -21.078125 28.550781 -23.59375 26.84375 -25.46875 C 25.132812 -27.34375 22.859375 -28.28125 20.015625 -28.28125 C 17.128906 -28.28125 14.832031 -27.347656 13.125 -25.484375 C 11.414062 -23.628906 10.5625 -21.109375 10.5625 -17.921875 C 10.5625 -14.773438 11.414062 -12.257812 13.125 -10.375 C 14.832031 -8.5 17.128906 -7.5625 20.015625 -7.5625 Z M 20.015625 -7.5625 "/></g></g></g><g fill="#000000" fill-opacity="1"><g transform="translate(525.264955, 54.592005)"><g><path d="M 35.046875 0 L 26.359375 0 L 11.828125 -21.984375 L 11.828125 0 L 3.15625 0 L 3.15625 -35.65625 L 11.828125 -35.65625 L 26.359375 -13.5625 L 26.359375 -35.65625 L 35.046875 -35.65625 Z M 35.046875 0 "/></g></g></g><g fill="#000000" fill-opacity="1"><g transform="translate(1.695214, 107.260147)"><g><path d="M 19.8125 -25.5625 L 11.625 -9.9375 L 11.625 0 L 9.0625 0 L 9.0625 -9.9375 L 0.796875 -25.5625 L 3.6875 -25.5625 L 10.34375 -12.28125 L 16.96875 -25.5625 Z M 19.8125 -25.5625 "/></g></g></g><g fill="#000000" fill-opacity="1"><g transform="translate(22.313634, 107.260147)"><g><path d="M 11.65625 0.296875 C 9.78125 0.296875 8.09375 -0.125 6.59375 -0.96875 C 5.09375 -1.8125 3.910156 -3.003906 3.046875 -4.546875 C 2.179688 -6.097656 1.75 -7.910156 1.75 -9.984375 C 1.75 -12.054688 2.1875 -13.863281 3.0625 -15.40625 C 3.945312 -16.957031 5.144531 -18.148438 6.65625 -18.984375 C 8.164062 -19.828125 9.859375 -20.25 11.734375 -20.25 C 13.609375 -20.25 15.304688 -19.828125 16.828125 -18.984375 C 18.359375 -18.148438 19.554688 -16.957031 20.421875 -15.40625 C 21.285156 -13.863281 21.71875 -12.054688 21.71875 -9.984375 C 21.71875 -7.929688 21.273438 -6.125 20.390625 -4.5625 C 19.515625 -3.007812 18.3125 -1.8125 16.78125 -0.96875 C 15.25 -0.125 13.539062 0.296875 11.65625 0.296875 Z M 11.65625 -1.9375 C 12.976562 -1.9375 14.195312 -2.234375 15.3125 -2.828125 C 16.4375 -3.429688 17.34375 -4.332031 18.03125 -5.53125 C 18.726562 -6.738281 19.078125 -8.222656 19.078125 -9.984375 C 19.078125 -11.734375 18.734375 -13.210938 18.046875 -14.421875 C 17.367188 -15.628906 16.46875 -16.53125 15.34375 -17.125 C 14.226562 -17.726562 13.015625 -18.03125 11.703125 -18.03125 C 10.378906 -18.03125 9.15625 -17.726562 8.03125 -17.125 C 6.914062 -16.53125 6.019531 -15.628906 5.34375 -14.421875 C 4.675781 -13.210938 4.34375 -11.734375 4.34375 -9.984375 C 4.34375 -8.222656 4.675781 -6.738281 5.34375 -5.53125 C 6.019531 -4.332031 6.910156 -3.429688 8.015625 -2.828125 C 9.128906 -2.234375 10.34375 -1.9375 11.65625 -1.9375 Z M 11.65625 -1.9375 "/></g></g></g><g fill="#000000" fill-opacity="1"><g transform="translate(45.783536, 107.260147)"><g><path d="M 20.21875 -19.96875 L 20.21875 0 L 17.65625 0 L 17.65625 -3.515625 C 17.070312 -2.265625 16.171875 -1.3125 14.953125 -0.65625 C 13.734375 0 12.367188 0.328125 10.859375 0.328125 C 8.472656 0.328125 6.519531 -0.40625 5 -1.875 C 3.488281 -3.351562 2.734375 -5.492188 2.734375 -8.296875 L 2.734375 -19.96875 L 5.265625 -19.96875 L 5.265625 -8.59375 C 5.265625 -6.425781 5.804688 -4.769531 6.890625 -3.625 C 7.972656 -2.476562 9.453125 -1.90625 11.328125 -1.90625 C 13.253906 -1.90625 14.789062 -2.515625 15.9375 -3.734375 C 17.082031 -4.953125 17.65625 -6.742188 17.65625 -9.109375 L 17.65625 -19.96875 Z M 20.21875 -19.96875 "/></g></g></g><g fill="#000000" fill-opacity="1"><g transform="translate(68.924419, 107.260147)"><g><path d="M 5.484375 -16.421875 C 6.046875 -17.660156 6.90625 -18.617188 8.0625 -19.296875 C 9.21875 -19.984375 10.640625 -20.328125 12.328125 -20.328125 L 12.328125 -17.65625 L 11.625 -17.65625 C 9.769531 -17.65625 8.28125 -17.15625 7.15625 -16.15625 C 6.039062 -15.15625 5.484375 -13.488281 5.484375 -11.15625 L 5.484375 0 L 2.921875 0 L 2.921875 -19.96875 L 5.484375 -19.96875 Z M 5.484375 -16.421875 "/></g></g></g><g fill="#000000" fill-opacity="1"><g transform="translate(82.15822, 107.260147)"><g/></g></g><g fill="#000000" fill-opacity="1"><g transform="translate(92.17497, 107.260147)"><g><path d="M 9.796875 0.296875 C 7.503906 0.296875 5.632812 -0.234375 4.1875 -1.296875 C 2.738281 -2.359375 1.925781 -3.800781 1.75 -5.625 L 4.390625 -5.625 C 4.503906 -4.507812 5.03125 -3.601562 5.96875 -2.90625 C 6.914062 -2.207031 8.179688 -1.859375 9.765625 -1.859375 C 11.148438 -1.859375 12.238281 -2.1875 13.03125 -2.84375 C 13.820312 -3.507812 14.21875 -4.328125 14.21875 -5.296875 C 14.21875 -5.984375 14 -6.546875 13.5625 -6.984375 C 13.125 -7.421875 12.566406 -7.765625 11.890625 -8.015625 C 11.222656 -8.273438 10.316406 -8.550781 9.171875 -8.84375 C 7.691406 -9.238281 6.488281 -9.628906 5.5625 -10.015625 C 4.632812 -10.410156 3.847656 -10.988281 3.203125 -11.75 C 2.554688 -12.519531 2.234375 -13.550781 2.234375 -14.84375 C 2.234375 -15.820312 2.523438 -16.722656 3.109375 -17.546875 C 3.691406 -18.378906 4.519531 -19.035156 5.59375 -19.515625 C 6.664062 -20.003906 7.882812 -20.25 9.25 -20.25 C 11.394531 -20.25 13.125 -19.707031 14.4375 -18.625 C 15.757812 -17.539062 16.46875 -16.050781 16.5625 -14.15625 L 14 -14.15625 C 13.925781 -15.320312 13.46875 -16.265625 12.625 -16.984375 C 11.789062 -17.703125 10.640625 -18.0625 9.171875 -18.0625 C 7.878906 -18.0625 6.832031 -17.753906 6.03125 -17.140625 C 5.226562 -16.535156 4.828125 -15.78125 4.828125 -14.875 C 4.828125 -14.09375 5.0625 -13.453125 5.53125 -12.953125 C 6.007812 -12.460938 6.601562 -12.078125 7.3125 -11.796875 C 8.019531 -11.515625 8.972656 -11.203125 10.171875 -10.859375 C 11.609375 -10.472656 12.75 -10.09375 13.59375 -9.71875 C 14.445312 -9.351562 15.175781 -8.816406 15.78125 -8.109375 C 16.394531 -7.410156 16.71875 -6.472656 16.75 -5.296875 C 16.75 -4.222656 16.453125 -3.265625 15.859375 -2.421875 C 15.273438 -1.585938 14.457031 -0.925781 13.40625 -0.4375 C 12.363281 0.0507812 11.160156 0.296875 9.796875 0.296875 Z M 9.796875 0.296875 "/></g></g></g><g fill="#000000" fill-opacity="1"><g transform="translate(110.819281, 107.260147)"><g><path d="M 6.25 -17.8125 L 6.25 -5.40625 C 6.25 -4.1875 6.476562 -3.34375 6.9375 -2.875 C 7.40625 -2.414062 8.222656 -2.1875 9.390625 -2.1875 L 11.734375 -2.1875 L 11.734375 0 L 9 0 C 7.1875 0 5.84375 -0.414062 4.96875 -1.25 C 4.09375 -2.09375 3.65625 -3.476562 3.65625 -5.40625 L 3.65625 -17.8125 L 0.875 -17.8125 L 0.875 -19.96875 L 3.65625 -19.96875 L 3.65625 -24.96875 L 6.25 -24.96875 L 6.25 -19.96875 L 11.734375 -19.96875 L 11.734375 -17.8125 Z M 6.25 -17.8125 "/></g></g></g><g fill="#000000" fill-opacity="1"><g transform="translate(123.833746, 107.260147)"><g><path d="M 20.984375 -11 C 20.984375 -10.125 20.957031 -9.457031 20.90625 -9 L 4.34375 -9 C 4.414062 -7.488281 4.78125 -6.195312 5.4375 -5.125 C 6.101562 -4.050781 6.972656 -3.238281 8.046875 -2.6875 C 9.117188 -2.132812 10.285156 -1.859375 11.546875 -1.859375 C 13.210938 -1.859375 14.609375 -2.257812 15.734375 -3.0625 C 16.867188 -3.875 17.617188 -4.960938 17.984375 -6.328125 L 20.6875 -6.328125 C 20.207031 -4.378906 19.164062 -2.785156 17.5625 -1.546875 C 15.96875 -0.316406 13.960938 0.296875 11.546875 0.296875 C 9.671875 0.296875 7.988281 -0.125 6.5 -0.96875 C 5.019531 -1.8125 3.859375 -3.003906 3.015625 -4.546875 C 2.171875 -6.097656 1.75 -7.910156 1.75 -9.984375 C 1.75 -12.054688 2.160156 -13.867188 2.984375 -15.421875 C 3.816406 -16.984375 4.976562 -18.175781 6.46875 -19 C 7.957031 -19.832031 9.648438 -20.25 11.546875 -20.25 C 13.453125 -20.25 15.117188 -19.832031 16.546875 -19 C 17.972656 -18.175781 19.066406 -17.0625 19.828125 -15.65625 C 20.597656 -14.257812 20.984375 -12.707031 20.984375 -11 Z M 18.390625 -11.078125 C 18.410156 -12.566406 18.109375 -13.832031 17.484375 -14.875 C 16.867188 -15.925781 16.023438 -16.71875 14.953125 -17.25 C 13.878906 -17.789062 12.707031 -18.0625 11.4375 -18.0625 C 9.539062 -18.0625 7.921875 -17.453125 6.578125 -16.234375 C 5.234375 -15.015625 4.488281 -13.296875 4.34375 -11.078125 Z M 18.390625 -11.078125 "/></g></g></g><g fill="#000000" fill-opacity="1"><g transform="translate(146.572494, 107.260147)"><g><path d="M 5.453125 -15.578125 C 6.078125 -16.921875 7.078125 -18.035156 8.453125 -18.921875 C 9.835938 -19.804688 11.476562 -20.25 13.375 -20.25 C 15.1875 -20.25 16.816406 -19.828125 18.265625 -18.984375 C 19.710938 -18.148438 20.84375 -16.957031 21.65625 -15.40625 C 22.476562 -13.863281 22.890625 -12.066406 22.890625 -10.015625 C 22.890625 -7.972656 22.476562 -6.171875 21.65625 -4.609375 C 20.84375 -3.046875 19.710938 -1.835938 18.265625 -0.984375 C 16.816406 -0.128906 15.1875 0.296875 13.375 0.296875 C 11.5 0.296875 9.863281 -0.144531 8.46875 -1.03125 C 7.082031 -1.925781 6.078125 -3.046875 5.453125 -4.390625 L 5.453125 9.4375 L 2.921875 9.4375 L 2.921875 -19.96875 L 5.453125 -19.96875 Z M 20.296875 -10.015625 C 20.296875 -11.671875 19.972656 -13.101562 19.328125 -14.3125 C 18.679688 -15.519531 17.796875 -16.441406 16.671875 -17.078125 C 15.546875 -17.710938 14.28125 -18.03125 12.875 -18.03125 C 11.507812 -18.03125 10.257812 -17.695312 9.125 -17.03125 C 7.988281 -16.375 7.09375 -15.4375 6.4375 -14.21875 C 5.78125 -13 5.453125 -11.585938 5.453125 -9.984375 C 5.453125 -8.367188 5.78125 -6.953125 6.4375 -5.734375 C 7.09375 -4.515625 7.988281 -3.578125 9.125 -2.921875 C 10.257812 -2.265625 11.507812 -1.9375 12.875 -1.9375 C 14.28125 -1.9375 15.546875 -2.257812 16.671875 -2.90625 C 17.796875 -3.550781 18.679688 -4.488281 19.328125 -5.71875 C 19.972656 -6.945312 20.296875 -8.378906 20.296875 -10.015625 Z M 20.296875 -10.015625 "/></g></g></g><g fill="#000000" fill-opacity="1"><g transform="translate(171.248786, 107.260147)"><g><path d="M 5.453125 -15.578125 C 6.078125 -16.921875 7.078125 -18.035156 8.453125 -18.921875 C 9.835938 -19.804688 11.476562 -20.25 13.375 -20.25 C 15.1875 -20.25 16.816406 -19.828125 18.265625 -18.984375 C 19.710938 -18.148438 20.84375 -16.957031 21.65625 -15.40625 C 22.476562 -13.863281 22.890625 -12.066406 22.890625 -10.015625 C 22.890625 -7.972656 22.476562 -6.171875 21.65625 -4.609375 C 20.84375 -3.046875 19.710938 -1.835938 18.265625 -0.984375 C 16.816406 -0.128906 15.1875 0.296875 13.375 0.296875 C 11.5 0.296875 9.863281 -0.144531 8.46875 -1.03125 C 7.082031 -1.925781 6.078125 -3.046875 5.453125 -4.390625 L 5.453125 9.4375 L 2.921875 9.4375 L 2.921875 -19.96875 L 5.453125 -19.96875 Z M 20.296875 -10.015625 C 20.296875 -11.671875 19.972656 -13.101562 19.328125 -14.3125 C 18.679688 -15.519531 17.796875 -16.441406 16.671875 -17.078125 C 15.546875 -17.710938 14.28125 -18.03125 12.875 -18.03125 C 11.507812 -18.03125 10.257812 -17.695312 9.125 -17.03125 C 7.988281 -16.375 7.09375 -15.4375 6.4375 -14.21875 C 5.78125 -13 5.453125 -11.585938 5.453125 -9.984375 C 5.453125 -8.367188 5.78125 -6.953125 6.4375 -5.734375 C 7.09375 -4.515625 7.988281 -3.578125 9.125 -2.921875 C 10.257812 -2.265625 11.507812 -1.9375 12.875 -1.9375 C 14.28125 -1.9375 15.546875 -2.257812 16.671875 -2.90625 C 17.796875 -3.550781 18.679688 -4.488281 19.328125 -5.71875 C 19.972656 -6.945312 20.296875 -8.378906 20.296875 -10.015625 Z M 20.296875 -10.015625 "/></g></g></g><g fill="#000000" fill-opacity="1"><g transform="translate(195.925077, 107.260147)"><g><path d="M 4.203125 -23.734375 C 3.691406 -23.734375 3.253906 -23.914062 2.890625 -24.28125 C 2.523438 -24.644531 2.34375 -25.09375 2.34375 -25.625 C 2.34375 -26.164062 2.523438 -26.613281 2.890625 -26.96875 C 3.253906 -27.320312 3.691406 -27.5 4.203125 -27.5 C 4.710938 -27.5 5.148438 -27.320312 5.515625 -26.96875 C 5.878906 -26.613281 6.0625 -26.164062 6.0625 -25.625 C 6.0625 -25.09375 5.878906 -24.644531 5.515625 -24.28125 C 5.148438 -23.914062 4.710938 -23.734375 4.203125 -23.734375 Z M 5.484375 -19.96875 L 5.484375 0 L 2.921875 0 L 2.921875 -19.96875 Z M 5.484375 -19.96875 "/></g></g></g><g fill="#000000" fill-opacity="1"><g transform="translate(204.296736, 107.260147)"><g><path d="M 12.28125 -20.328125 C 14.675781 -20.328125 16.628906 -19.585938 18.140625 -18.109375 C 19.648438 -16.640625 20.40625 -14.503906 20.40625 -11.703125 L 20.40625 0 L 17.875 0 L 17.875 -11.40625 C 17.875 -13.570312 17.332031 -15.226562 16.25 -16.375 C 15.164062 -17.519531 13.6875 -18.09375 11.8125 -18.09375 C 9.882812 -18.09375 8.347656 -17.484375 7.203125 -16.265625 C 6.054688 -15.046875 5.484375 -13.253906 5.484375 -10.890625 L 5.484375 0 L 2.921875 0 L 2.921875 -19.96875 L 5.484375 -19.96875 L 5.484375 -16.5625 C 6.117188 -17.78125 7.03125 -18.710938 8.21875 -19.359375 C 9.414062 -20.003906 10.769531 -20.328125 12.28125 -20.328125 Z M 12.28125 -20.328125 "/></g></g></g><g fill="#000000" fill-opacity="1"><g transform="translate(227.43762, 107.260147)"><g><path d="M 11.296875 -20.25 C 13.171875 -20.25 14.800781 -19.8125 16.1875 -18.9375 C 17.582031 -18.0625 18.582031 -16.953125 19.1875 -15.609375 L 19.1875 -19.96875 L 21.75 -19.96875 L 21.75 0.515625 C 21.75 2.335938 21.351562 3.957031 20.5625 5.375 C 19.769531 6.789062 18.664062 7.878906 17.25 8.640625 C 15.84375 9.410156 14.238281 9.796875 12.4375 9.796875 C 9.875 9.796875 7.742188 9.1875 6.046875 7.96875 C 4.359375 6.75 3.304688 5.09375 2.890625 3 L 5.40625 3 C 5.84375 4.382812 6.675781 5.488281 7.90625 6.3125 C 9.144531 7.144531 10.65625 7.5625 12.4375 7.5625 C 13.726562 7.5625 14.882812 7.285156 15.90625 6.734375 C 16.925781 6.191406 17.726562 5.382812 18.3125 4.3125 C 18.894531 3.238281 19.1875 1.972656 19.1875 0.515625 L 19.1875 -4.421875 C 18.5625 -3.054688 17.554688 -1.925781 16.171875 -1.03125 C 14.796875 -0.144531 13.171875 0.296875 11.296875 0.296875 C 9.472656 0.296875 7.832031 -0.128906 6.375 -0.984375 C 4.925781 -1.835938 3.789062 -3.046875 2.96875 -4.609375 C 2.15625 -6.171875 1.75 -7.972656 1.75 -10.015625 C 1.75 -12.066406 2.15625 -13.863281 2.96875 -15.40625 C 3.789062 -16.957031 4.925781 -18.148438 6.375 -18.984375 C 7.832031 -19.828125 9.472656 -20.25 11.296875 -20.25 Z M 19.1875 -9.984375 C 19.1875 -11.585938 18.859375 -13 18.203125 -14.21875 C 17.546875 -15.4375 16.648438 -16.375 15.515625 -17.03125 C 14.390625 -17.695312 13.140625 -18.03125 11.765625 -18.03125 C 10.359375 -18.03125 9.09375 -17.710938 7.96875 -17.078125 C 6.84375 -16.441406 5.957031 -15.519531 5.3125 -14.3125 C 4.664062 -13.101562 4.34375 -11.671875 4.34375 -10.015625 C 4.34375 -8.378906 4.664062 -6.945312 5.3125 -5.71875 C 5.957031 -4.488281 6.84375 -3.550781 7.96875 -2.90625 C 9.09375 -2.257812 10.359375 -1.9375 11.765625 -1.9375 C 13.140625 -1.9375 14.390625 -2.265625 15.515625 -2.921875 C 16.648438 -3.578125 17.546875 -4.515625 18.203125 -5.734375 C 18.859375 -6.953125 19.1875 -8.367188 19.1875 -9.984375 Z M 19.1875 -9.984375 "/></g></g></g><g fill="#000000" fill-opacity="1"><g transform="translate(252.113912, 107.260147)"><g/></g></g><g fill="#000000" fill-opacity="1"><g transform="translate(262.130662, 107.260147)"><g><path d="M 9.796875 0.296875 C 7.503906 0.296875 5.632812 -0.234375 4.1875 -1.296875 C 2.738281 -2.359375 1.925781 -3.800781 1.75 -5.625 L 4.390625 -5.625 C 4.503906 -4.507812 5.03125 -3.601562 5.96875 -2.90625 C 6.914062 -2.207031 8.179688 -1.859375 9.765625 -1.859375 C 11.148438 -1.859375 12.238281 -2.1875 13.03125 -2.84375 C 13.820312 -3.507812 14.21875 -4.328125 14.21875 -5.296875 C 14.21875 -5.984375 14 -6.546875 13.5625 -6.984375 C 13.125 -7.421875 12.566406 -7.765625 11.890625 -8.015625 C 11.222656 -8.273438 10.316406 -8.550781 9.171875 -8.84375 C 7.691406 -9.238281 6.488281 -9.628906 5.5625 -10.015625 C 4.632812 -10.410156 3.847656 -10.988281 3.203125 -11.75 C 2.554688 -12.519531 2.234375 -13.550781 2.234375 -14.84375 C 2.234375 -15.820312 2.523438 -16.722656 3.109375 -17.546875 C 3.691406 -18.378906 4.519531 -19.035156 5.59375 -19.515625 C 6.664062 -20.003906 7.882812 -20.25 9.25 -20.25 C 11.394531 -20.25 13.125 -19.707031 14.4375 -18.625 C 15.757812 -17.539062 16.46875 -16.050781 16.5625 -14.15625 L 14 -14.15625 C 13.925781 -15.320312 13.46875 -16.265625 12.625 -16.984375 C 11.789062 -17.703125 10.640625 -18.0625 9.171875 -18.0625 C 7.878906 -18.0625 6.832031 -17.753906 6.03125 -17.140625 C 5.226562 -16.535156 4.828125 -15.78125 4.828125 -14.875 C 4.828125 -14.09375 5.0625 -13.453125 5.53125 -12.953125 C 6.007812 -12.460938 6.601562 -12.078125 7.3125 -11.796875 C 8.019531 -11.515625 8.972656 -11.203125 10.171875 -10.859375 C 11.609375 -10.472656 12.75 -10.09375 13.59375 -9.71875 C 14.445312 -9.351562 15.175781 -8.816406 15.78125 -8.109375 C 16.394531 -7.410156 16.71875 -6.472656 16.75 -5.296875 C 16.75 -4.222656 16.453125 -3.265625 15.859375 -2.421875 C 15.273438 -1.585938 14.457031 -0.925781 13.40625 -0.4375 C 12.363281 0.0507812 11.160156 0.296875 9.796875 0.296875 Z M 9.796875 0.296875 "/></g></g></g><g fill="#000000" fill-opacity="1"><g transform="translate(280.774957, 107.260147)"><g><path d="M 6.25 -17.8125 L 6.25 -5.40625 C 6.25 -4.1875 6.476562 -3.34375 6.9375 -2.875 C 7.40625 -2.414062 8.222656 -2.1875 9.390625 -2.1875 L 11.734375 -2.1875 L 11.734375 0 L 9 0 C 7.1875 0 5.84375 -0.414062 4.96875 -1.25 C 4.09375 -2.09375 3.65625 -3.476562 3.65625 -5.40625 L 3.65625 -17.8125 L 0.875 -17.8125 L 0.875 -19.96875 L 3.65625 -19.96875 L 3.65625 -24.96875 L 6.25 -24.96875 L 6.25 -19.96875 L 11.734375 -19.96875 L 11.734375 -17.8125 Z M 6.25 -17.8125 "/></g></g></g><g fill="#000000" fill-opacity="1"><g transform="translate(293.789423, 107.260147)"><g><path d="M 11.65625 0.296875 C 9.78125 0.296875 8.09375 -0.125 6.59375 -0.96875 C 5.09375 -1.8125 3.910156 -3.003906 3.046875 -4.546875 C 2.179688 -6.097656 1.75 -7.910156 1.75 -9.984375 C 1.75 -12.054688 2.1875 -13.863281 3.0625 -15.40625 C 3.945312 -16.957031 5.144531 -18.148438 6.65625 -18.984375 C 8.164062 -19.828125 9.859375 -20.25 11.734375 -20.25 C 13.609375 -20.25 15.304688 -19.828125 16.828125 -18.984375 C 18.359375 -18.148438 19.554688 -16.957031 20.421875 -15.40625 C 21.285156 -13.863281 21.71875 -12.054688 21.71875 -9.984375 C 21.71875 -7.929688 21.273438 -6.125 20.390625 -4.5625 C 19.515625 -3.007812 18.3125 -1.8125 16.78125 -0.96875 C 15.25 -0.125 13.539062 0.296875 11.65625 0.296875 Z M 11.65625 -1.9375 C 12.976562 -1.9375 14.195312 -2.234375 15.3125 -2.828125 C 16.4375 -3.429688 17.34375 -4.332031 18.03125 -5.53125 C 18.726562 -6.738281 19.078125 -8.222656 19.078125 -9.984375 C 19.078125 -11.734375 18.734375 -13.210938 18.046875 -14.421875 C 17.367188 -15.628906 16.46875 -16.53125 15.34375 -17.125 C 14.226562 -17.726562 13.015625 -18.03125 11.703125 -18.03125 C 10.378906 -18.03125 9.15625 -17.726562 8.03125 -17.125 C 6.914062 -16.53125 6.019531 -15.628906 5.34375 -14.421875 C 4.675781 -13.210938 4.34375 -11.734375 4.34375 -9.984375 C 4.34375 -8.222656 4.675781 -6.738281 5.34375 -5.53125 C 6.019531 -4.332031 6.910156 -3.429688 8.015625 -2.828125 C 9.128906 -2.234375 10.34375 -1.9375 11.65625 -1.9375 Z M 11.65625 -1.9375 "/></g></g></g><g fill="#000000" fill-opacity="1"><g transform="translate(317.259339, 107.260147)"><g><path d="M 12.28125 -20.328125 C 14.675781 -20.328125 16.628906 -19.585938 18.140625 -18.109375 C 19.648438 -16.640625 20.40625 -14.503906 20.40625 -11.703125 L 20.40625 0 L 17.875 0 L 17.875 -11.40625 C 17.875 -13.570312 17.332031 -15.226562 16.25 -16.375 C 15.164062 -17.519531 13.6875 -18.09375 11.8125 -18.09375 C 9.882812 -18.09375 8.347656 -17.484375 7.203125 -16.265625 C 6.054688 -15.046875 5.484375 -13.253906 5.484375 -10.890625 L 5.484375 0 L 2.921875 0 L 2.921875 -19.96875 L 5.484375 -19.96875 L 5.484375 -16.5625 C 6.117188 -17.78125 7.03125 -18.710938 8.21875 -19.359375 C 9.414062 -20.003906 10.769531 -20.328125 12.28125 -20.328125 Z M 12.28125 -20.328125 "/></g></g></g><g fill="#000000" fill-opacity="1"><g transform="translate(340.400223, 107.260147)"><g><path d="M 20.984375 -11 C 20.984375 -10.125 20.957031 -9.457031 20.90625 -9 L 4.34375 -9 C 4.414062 -7.488281 4.78125 -6.195312 5.4375 -5.125 C 6.101562 -4.050781 6.972656 -3.238281 8.046875 -2.6875 C 9.117188 -2.132812 10.285156 -1.859375 11.546875 -1.859375 C 13.210938 -1.859375 14.609375 -2.257812 15.734375 -3.0625 C 16.867188 -3.875 17.617188 -4.960938 17.984375 -6.328125 L 20.6875 -6.328125 C 20.207031 -4.378906 19.164062 -2.785156 17.5625 -1.546875 C 15.96875 -0.316406 13.960938 0.296875 11.546875 0.296875 C 9.671875 0.296875 7.988281 -0.125 6.5 -0.96875 C 5.019531 -1.8125 3.859375 -3.003906 3.015625 -4.546875 C 2.171875 -6.097656 1.75 -7.910156 1.75 -9.984375 C 1.75 -12.054688 2.160156 -13.867188 2.984375 -15.421875 C 3.816406 -16.984375 4.976562 -18.175781 6.46875 -19 C 7.957031 -19.832031 9.648438 -20.25 11.546875 -20.25 C 13.453125 -20.25 15.117188 -19.832031 16.546875 -19 C 17.972656 -18.175781 19.066406 -17.0625 19.828125 -15.65625 C 20.597656 -14.257812 20.984375 -12.707031 20.984375 -11 Z M 18.390625 -11.078125 C 18.410156 -12.566406 18.109375 -13.832031 17.484375 -14.875 C 16.867188 -15.925781 16.023438 -16.71875 14.953125 -17.25 C 13.878906 -17.789062 12.707031 -18.0625 11.4375 -18.0625 C 9.539062 -18.0625 7.921875 -17.453125 6.578125 -16.234375 C 5.234375 -15.015625 4.488281 -13.296875 4.34375 -11.078125 Z M 18.390625 -11.078125 "/></g></g></g><g fill="#000000" fill-opacity="1"><g transform="translate(363.138971, 107.260147)"><g/></g></g><g fill="#000000" fill-opacity="1"><g transform="translate(373.155721, 107.260147)"><g><path d="M 6.25 -17.8125 L 6.25 -5.40625 C 6.25 -4.1875 6.476562 -3.34375 6.9375 -2.875 C 7.40625 -2.414062 8.222656 -2.1875 9.390625 -2.1875 L 11.734375 -2.1875 L 11.734375 0 L 9 0 C 7.1875 0 5.84375 -0.414062 4.96875 -1.25 C 4.09375 -2.09375 3.65625 -3.476562 3.65625 -5.40625 L 3.65625 -17.8125 L 0.875 -17.8125 L 0.875 -19.96875 L 3.65625 -19.96875 L 3.65625 -24.96875 L 6.25 -24.96875 L 6.25 -19.96875 L 11.734375 -19.96875 L 11.734375 -17.8125 Z M 6.25 -17.8125 "/></g></g></g><g fill="#000000" fill-opacity="1"><g transform="translate(386.170187, 107.260147)"><g><path d="M 11.65625 0.296875 C 9.78125 0.296875 8.09375 -0.125 6.59375 -0.96875 C 5.09375 -1.8125 3.910156 -3.003906 3.046875 -4.546875 C 2.179688 -6.097656 1.75 -7.910156 1.75 -9.984375 C 1.75 -12.054688 2.1875 -13.863281 3.0625 -15.40625 C 3.945312 -16.957031 5.144531 -18.148438 6.65625 -18.984375 C 8.164062 -19.828125 9.859375 -20.25 11.734375 -20.25 C 13.609375 -20.25 15.304688 -19.828125 16.828125 -18.984375 C 18.359375 -18.148438 19.554688 -16.957031 20.421875 -15.40625 C 21.285156 -13.863281 21.71875 -12.054688 21.71875 -9.984375 C 21.71875 -7.929688 21.273438 -6.125 20.390625 -4.5625 C 19.515625 -3.007812 18.3125 -1.8125 16.78125 -0.96875 C 15.25 -0.125 13.539062 0.296875 11.65625 0.296875 Z M 11.65625 -1.9375 C 12.976562 -1.9375 14.195312 -2.234375 15.3125 -2.828125 C 16.4375 -3.429688 17.34375 -4.332031 18.03125 -5.53125 C 18.726562 -6.738281 19.078125 -8.222656 19.078125 -9.984375 C 19.078125 -11.734375 18.734375 -13.210938 18.046875 -14.421875 C 17.367188 -15.628906 16.46875 -16.53125 15.34375 -17.125 C 14.226562 -17.726562 13.015625 -18.03125 11.703125 -18.03125 C 10.378906 -18.03125 9.15625 -17.726562 8.03125 -17.125 C 6.914062 -16.53125 6.019531 -15.628906 5.34375 -14.421875 C 4.675781 -13.210938 4.34375 -11.734375 4.34375 -9.984375 C 4.34375 -8.222656 4.675781 -6.738281 5.34375 -5.53125 C 6.019531 -4.332031 6.910156 -3.429688 8.015625 -2.828125 C 9.128906 -2.234375 10.34375 -1.9375 11.65625 -1.9375 Z M 11.65625 -1.9375 "/></g></g></g><g fill="#000000" fill-opacity="1"><g transform="translate(409.640073, 107.260147)"><g/></g></g><g fill="#000000" fill-opacity="1"><g transform="translate(419.656854, 107.260147)"><g><path d="M 9.796875 0.296875 C 7.503906 0.296875 5.632812 -0.234375 4.1875 -1.296875 C 2.738281 -2.359375 1.925781 -3.800781 1.75 -5.625 L 4.390625 -5.625 C 4.503906 -4.507812 5.03125 -3.601562 5.96875 -2.90625 C 6.914062 -2.207031 8.179688 -1.859375 9.765625 -1.859375 C 11.148438 -1.859375 12.238281 -2.1875 13.03125 -2.84375 C 13.820312 -3.507812 14.21875 -4.328125 14.21875 -5.296875 C 14.21875 -5.984375 14 -6.546875 13.5625 -6.984375 C 13.125 -7.421875 12.566406 -7.765625 11.890625 -8.015625 C 11.222656 -8.273438 10.316406 -8.550781 9.171875 -8.84375 C 7.691406 -9.238281 6.488281 -9.628906 5.5625 -10.015625 C 4.632812 -10.410156 3.847656 -10.988281 3.203125 -11.75 C 2.554688 -12.519531 2.234375 -13.550781 2.234375 -14.84375 C 2.234375 -15.820312 2.523438 -16.722656 3.109375 -17.546875 C 3.691406 -18.378906 4.519531 -19.035156 5.59375 -19.515625 C 6.664062 -20.003906 7.882812 -20.25 9.25 -20.25 C 11.394531 -20.25 13.125 -19.707031 14.4375 -18.625 C 15.757812 -17.539062 16.46875 -16.050781 16.5625 -14.15625 L 14 -14.15625 C 13.925781 -15.320312 13.46875 -16.265625 12.625 -16.984375 C 11.789062 -17.703125 10.640625 -18.0625 9.171875 -18.0625 C 7.878906 -18.0625 6.832031 -17.753906 6.03125 -17.140625 C 5.226562 -16.535156 4.828125 -15.78125 4.828125 -14.875 C 4.828125 -14.09375 5.0625 -13.453125 5.53125 -12.953125 C 6.007812 -12.460938 6.601562 -12.078125 7.3125 -11.796875 C 8.019531 -11.515625 8.972656 -11.203125 10.171875 -10.859375 C 11.609375 -10.472656 12.75 -10.09375 13.59375 -9.71875 C 14.445312 -9.351562 15.175781 -8.816406 15.78125 -8.109375 C 16.394531 -7.410156 16.71875 -6.472656 16.75 -5.296875 C 16.75 -4.222656 16.453125 -3.265625 15.859375 -2.421875 C 15.273438 -1.585938 14.457031 -0.925781 13.40625 -0.4375 C 12.363281 0.0507812 11.160156 0.296875 9.796875 0.296875 Z M 9.796875 0.296875 "/></g></g></g><g fill="#000000" fill-opacity="1"><g transform="translate(438.30115, 107.260147)"><g><path d="M 20.21875 -19.96875 L 20.21875 0 L 17.65625 0 L 17.65625 -3.515625 C 17.070312 -2.265625 16.171875 -1.3125 14.953125 -0.65625 C 13.734375 0 12.367188 0.328125 10.859375 0.328125 C 8.472656 0.328125 6.519531 -0.40625 5 -1.875 C 3.488281 -3.351562 2.734375 -5.492188 2.734375 -8.296875 L 2.734375 -19.96875 L 5.265625 -19.96875 L 5.265625 -8.59375 C 5.265625 -6.425781 5.804688 -4.769531 6.890625 -3.625 C 7.972656 -2.476562 9.453125 -1.90625 11.328125 -1.90625 C 13.253906 -1.90625 14.789062 -2.515625 15.9375 -3.734375 C 17.082031 -4.953125 17.65625 -6.742188 17.65625 -9.109375 L 17.65625 -19.96875 Z M 20.21875 -19.96875 "/></g></g></g><g fill="#000000" fill-opacity="1"><g transform="translate(461.442033, 107.260147)"><g><path d="M 1.75 -9.984375 C 1.75 -12.054688 2.160156 -13.863281 2.984375 -15.40625 C 3.816406 -16.957031 4.960938 -18.148438 6.421875 -18.984375 C 7.890625 -19.828125 9.5625 -20.25 11.4375 -20.25 C 13.90625 -20.25 15.9375 -19.640625 17.53125 -18.421875 C 19.125 -17.203125 20.15625 -15.546875 20.625 -13.453125 L 17.875 -13.453125 C 17.53125 -14.890625 16.789062 -16.015625 15.65625 -16.828125 C 14.53125 -17.648438 13.125 -18.0625 11.4375 -18.0625 C 10.101562 -18.0625 8.898438 -17.753906 7.828125 -17.140625 C 6.753906 -16.535156 5.90625 -15.628906 5.28125 -14.421875 C 4.65625 -13.210938 4.34375 -11.734375 4.34375 -9.984375 C 4.34375 -8.222656 4.65625 -6.734375 5.28125 -5.515625 C 5.90625 -4.296875 6.753906 -3.378906 7.828125 -2.765625 C 8.898438 -2.160156 10.101562 -1.859375 11.4375 -1.859375 C 13.125 -1.859375 14.53125 -2.265625 15.65625 -3.078125 C 16.789062 -3.898438 17.53125 -5.046875 17.875 -6.515625 L 20.625 -6.515625 C 20.15625 -4.460938 19.113281 -2.8125 17.5 -1.5625 C 15.894531 -0.320312 13.875 0.296875 11.4375 0.296875 C 9.5625 0.296875 7.890625 -0.125 6.421875 -0.96875 C 4.960938 -1.8125 3.816406 -3.003906 2.984375 -4.546875 C 2.160156 -6.097656 1.75 -7.910156 1.75 -9.984375 Z M 1.75 -9.984375 "/></g></g></g><g fill="#000000" fill-opacity="1"><g transform="translate(483.851779, 107.260147)"><g><path d="M 1.75 -9.984375 C 1.75 -12.054688 2.160156 -13.863281 2.984375 -15.40625 C 3.816406 -16.957031 4.960938 -18.148438 6.421875 -18.984375 C 7.890625 -19.828125 9.5625 -20.25 11.4375 -20.25 C 13.90625 -20.25 15.9375 -19.640625 17.53125 -18.421875 C 19.125 -17.203125 20.15625 -15.546875 20.625 -13.453125 L 17.875 -13.453125 C 17.53125 -14.890625 16.789062 -16.015625 15.65625 -16.828125 C 14.53125 -17.648438 13.125 -18.0625 11.4375 -18.0625 C 10.101562 -18.0625 8.898438 -17.753906 7.828125 -17.140625 C 6.753906 -16.535156 5.90625 -15.628906 5.28125 -14.421875 C 4.65625 -13.210938 4.34375 -11.734375 4.34375 -9.984375 C 4.34375 -8.222656 4.65625 -6.734375 5.28125 -5.515625 C 5.90625 -4.296875 6.753906 -3.378906 7.828125 -2.765625 C 8.898438 -2.160156 10.101562 -1.859375 11.4375 -1.859375 C 13.125 -1.859375 14.53125 -2.265625 15.65625 -3.078125 C 16.789062 -3.898438 17.53125 -5.046875 17.875 -6.515625 L 20.625 -6.515625 C 20.15625 -4.460938 19.113281 -2.8125 17.5 -1.5625 C 15.894531 -0.320312 13.875 0.296875 11.4375 0.296875 C 9.5625 0.296875 7.890625 -0.125 6.421875 -0.96875 C 4.960938 -1.8125 3.816406 -3.003906 2.984375 -4.546875 C 2.160156 -6.097656 1.75 -7.910156 1.75 -9.984375 Z M 1.75 -9.984375 "/></g></g></g><g fill="#000000" fill-opacity="1"><g transform="translate(506.261493, 107.260147)"><g><path d="M 20.984375 -11 C 20.984375 -10.125 20.957031 -9.457031 20.90625 -9 L 4.34375 -9 C 4.414062 -7.488281 4.78125 -6.195312 5.4375 -5.125 C 6.101562 -4.050781 6.972656 -3.238281 8.046875 -2.6875 C 9.117188 -2.132812 10.285156 -1.859375 11.546875 -1.859375 C 13.210938 -1.859375 14.609375 -2.257812 15.734375 -3.0625 C 16.867188 -3.875 17.617188 -4.960938 17.984375 -6.328125 L 20.6875 -6.328125 C 20.207031 -4.378906 19.164062 -2.785156 17.5625 -1.546875 C 15.96875 -0.316406 13.960938 0.296875 11.546875 0.296875 C 9.671875 0.296875 7.988281 -0.125 6.5 -0.96875 C 5.019531 -1.8125 3.859375 -3.003906 3.015625 -4.546875 C 2.171875 -6.097656 1.75 -7.910156 1.75 -9.984375 C 1.75 -12.054688 2.160156 -13.867188 2.984375 -15.421875 C 3.816406 -16.984375 4.976562 -18.175781 6.46875 -19 C 7.957031 -19.832031 9.648438 -20.25 11.546875 -20.25 C 13.453125 -20.25 15.117188 -19.832031 16.546875 -19 C 17.972656 -18.175781 19.066406 -17.0625 19.828125 -15.65625 C 20.597656 -14.257812 20.984375 -12.707031 20.984375 -11 Z M 18.390625 -11.078125 C 18.410156 -12.566406 18.109375 -13.832031 17.484375 -14.875 C 16.867188 -15.925781 16.023438 -16.71875 14.953125 -17.25 C 13.878906 -17.789062 12.707031 -18.0625 11.4375 -18.0625 C 9.539062 -18.0625 7.921875 -17.453125 6.578125 -16.234375 C 5.234375 -15.015625 4.488281 -13.296875 4.34375 -11.078125 Z M 18.390625 -11.078125 "/></g></g></g><g fill="#000000" fill-opacity="1"><g transform="translate(529.000271, 107.260147)"><g><path d="M 9.796875 0.296875 C 7.503906 0.296875 5.632812 -0.234375 4.1875 -1.296875 C 2.738281 -2.359375 1.925781 -3.800781 1.75 -5.625 L 4.390625 -5.625 C 4.503906 -4.507812 5.03125 -3.601562 5.96875 -2.90625 C 6.914062 -2.207031 8.179688 -1.859375 9.765625 -1.859375 C 11.148438 -1.859375 12.238281 -2.1875 13.03125 -2.84375 C 13.820312 -3.507812 14.21875 -4.328125 14.21875 -5.296875 C 14.21875 -5.984375 14 -6.546875 13.5625 -6.984375 C 13.125 -7.421875 12.566406 -7.765625 11.890625 -8.015625 C 11.222656 -8.273438 10.316406 -8.550781 9.171875 -8.84375 C 7.691406 -9.238281 6.488281 -9.628906 5.5625 -10.015625 C 4.632812 -10.410156 3.847656 -10.988281 3.203125 -11.75 C 2.554688 -12.519531 2.234375 -13.550781 2.234375 -14.84375 C 2.234375 -15.820312 2.523438 -16.722656 3.109375 -17.546875 C 3.691406 -18.378906 4.519531 -19.035156 5.59375 -19.515625 C 6.664062 -20.003906 7.882812 -20.25 9.25 -20.25 C 11.394531 -20.25 13.125 -19.707031 14.4375 -18.625 C 15.757812 -17.539062 16.46875 -16.050781 16.5625 -14.15625 L 14 -14.15625 C 13.925781 -15.320312 13.46875 -16.265625 12.625 -16.984375 C 11.789062 -17.703125 10.640625 -18.0625 9.171875 -18.0625 C 7.878906 -18.0625 6.832031 -17.753906 6.03125 -17.140625 C 5.226562 -16.535156 4.828125 -15.78125 4.828125 -14.875 C 4.828125 -14.09375 5.0625 -13.453125 5.53125 -12.953125 C 6.007812 -12.460938 6.601562 -12.078125 7.3125 -11.796875 C 8.019531 -11.515625 8.972656 -11.203125 10.171875 -10.859375 C 11.609375 -10.472656 12.75 -10.09375 13.59375 -9.71875 C 14.445312 -9.351562 15.175781 -8.816406 15.78125 -8.109375 C 16.394531 -7.410156 16.71875 -6.472656 16.75 -5.296875 C 16.75 -4.222656 16.453125 -3.265625 15.859375 -2.421875 C 15.273438 -1.585938 14.457031 -0.925781 13.40625 -0.4375 C 12.363281 0.0507812 11.160156 0.296875 9.796875 0.296875 Z M 9.796875 0.296875 "/></g></g></g><g fill="#000000" fill-opacity="1"><g transform="translate(547.644567, 107.260147)"><g><path d="M 9.796875 0.296875 C 7.503906 0.296875 5.632812 -0.234375 4.1875 -1.296875 C 2.738281 -2.359375 1.925781 -3.800781 1.75 -5.625 L 4.390625 -5.625 C 4.503906 -4.507812 5.03125 -3.601562 5.96875 -2.90625 C 6.914062 -2.207031 8.179688 -1.859375 9.765625 -1.859375 C 11.148438 -1.859375 12.238281 -2.1875 13.03125 -2.84375 C 13.820312 -3.507812 14.21875 -4.328125 14.21875 -5.296875 C 14.21875 -5.984375 14 -6.546875 13.5625 -6.984375 C 13.125 -7.421875 12.566406 -7.765625 11.890625 -8.015625 C 11.222656 -8.273438 10.316406 -8.550781 9.171875 -8.84375 C 7.691406 -9.238281 6.488281 -9.628906 5.5625 -10.015625 C 4.632812 -10.410156 3.847656 -10.988281 3.203125 -11.75 C 2.554688 -12.519531 2.234375 -13.550781 2.234375 -14.84375 C 2.234375 -15.820312 2.523438 -16.722656 3.109375 -17.546875 C 3.691406 -18.378906 4.519531 -19.035156 5.59375 -19.515625 C 6.664062 -20.003906 7.882812 -20.25 9.25 -20.25 C 11.394531 -20.25 13.125 -19.707031 14.4375 -18.625 C 15.757812 -17.539062 16.46875 -16.050781 16.5625 -14.15625 L 14 -14.15625 C 13.925781 -15.320312 13.46875 -16.265625 12.625 -16.984375 C 11.789062 -17.703125 10.640625 -18.0625 9.171875 -18.0625 C 7.878906 -18.0625 6.832031 -17.753906 6.03125 -17.140625 C 5.226562 -16.535156 4.828125 -15.78125 4.828125 -14.875 C 4.828125 -14.09375 5.0625 -13.453125 5.53125 -12.953125 C 6.007812 -12.460938 6.601562 -12.078125 7.3125 -11.796875 C 8.019531 -11.515625 8.972656 -11.203125 10.171875 -10.859375 C 11.609375 -10.472656 12.75 -10.09375 13.59375 -9.71875 C 14.445312 -9.351562 15.175781 -8.816406 15.78125 -8.109375 C 16.394531 -7.410156 16.71875 -6.472656 16.75 -5.296875 C 16.75 -4.222656 16.453125 -3.265625 15.859375 -2.421875 C 15.273438 -1.585938 14.457031 -0.925781 13.40625 -0.4375 C 12.363281 0.0507812 11.160156 0.296875 9.796875 0.296875 Z M 9.796875 0.296875 "/></g></g></g></g></g></g></g></g></svg>